<svg width="29" height="29" viewBox="0 0 29 29" fill="none" xmlns="http://www.w3.org/2000/svg">
<path d="M23.2971 0.265435C22.9432 -0.0884782 22.3694 -0.0884782 22.0155 0.265435L19.0313 3.24963L25.7504 9.96876L28.7346 6.98457C29.0885 6.63065 29.0885 6.05685 28.7346 5.70293L23.2971 0.265435Z" fill="white"/>
<path d="M24.4688 11.2504L17.7496 4.53126L5.96839 16.3125H6.34375C6.84426 16.3125 7.25 16.7182 7.25 17.2188V18.125H8.15625C8.65676 18.125 9.0625 18.5307 9.0625 19.0312V19.9375H9.96875C10.4693 19.9375 10.875 20.3432 10.875 20.8438V21.75H11.7812C12.2818 21.75 12.6875 22.1557 12.6875 22.6562V23.0317L24.4688 11.2504Z" fill="white"/>
<path d="M10.9324 24.7868C10.8953 24.6878 10.875 24.5807 10.875 24.4688V23.5625H9.96875C9.46824 23.5625 9.0625 23.1568 9.0625 22.6562V21.75H8.15625C7.65574 21.75 7.25 21.3443 7.25 20.8438V19.9375H6.34375C5.84324 19.9375 5.4375 19.5318 5.4375 19.0312V18.125H4.53125C4.41936 18.125 4.3122 18.1047 4.21326 18.0676L3.89046 18.3904C3.80368 18.4772 3.73543 18.5807 3.68984 18.6947L0.0648444 27.7572C-0.0697942 28.0938 0.00911667 28.4782 0.265461 28.7346C0.521805 28.9909 0.906253 29.0698 1.24285 28.9352L10.3053 25.3102C10.4193 25.2646 10.5228 25.1963 10.6096 25.1096L10.9324 24.7868Z" fill="white"/>
</svg>
