<svg width="29" height="29" viewBox="0 0 29 29" fill="none" xmlns="http://www.w3.org/2000/svg">
<path d="M19.9375 2.71875V4.53125H26.2812C26.7818 4.53125 27.1875 4.93699 27.1875 5.4375C27.1875 5.93801 26.7818 6.34375 26.2812 6.34375H25.3054L23.7598 25.6641C23.6091 27.548 22.0362 29 20.1463 29H8.85369C6.96375 29 5.39094 27.548 5.24023 25.6641L3.6946 6.34375H2.71875C2.21824 6.34375 1.8125 5.93801 1.8125 5.4375C1.8125 4.93699 2.21824 4.53125 2.71875 4.53125H9.0625V2.71875C9.0625 1.21723 10.2797 0 11.7812 0H17.2188C18.7203 0 19.9375 1.21723 19.9375 2.71875ZM10.875 2.71875V4.53125H18.125V2.71875C18.125 2.21824 17.7193 1.8125 17.2188 1.8125H11.7812C11.2807 1.8125 10.875 2.21824 10.875 2.71875ZM8.15623 9.11416L9.06248 24.5204C9.09187 25.0201 9.52074 25.4013 10.0204 25.3719C10.52 25.3425 10.9012 24.9136 10.8719 24.414L9.9656 9.00772C9.93621 8.50808 9.50734 8.12686 9.0077 8.15625C8.50805 8.18565 8.12684 8.61451 8.15623 9.11416ZM19.9923 8.15781C19.4926 8.12842 19.0638 8.50964 19.0344 9.00928L18.1281 24.4155C18.0988 24.9152 18.48 25.344 18.9796 25.3734C19.4793 25.4028 19.9081 25.0216 19.9375 24.522L20.8438 9.11572C20.8732 8.61607 20.4919 8.1872 19.9923 8.15781ZM14.5 8.15625C13.9995 8.15625 13.5938 8.56199 13.5938 9.0625V24.4688C13.5938 24.9693 13.9995 25.375 14.5 25.375C15.0005 25.375 15.4063 24.9693 15.4063 24.4688V9.0625C15.4063 8.56199 15.0005 8.15625 14.5 8.15625Z" fill="white"/>
</svg>
